<svg width="109" height="35" viewBox="0 0 109 35" fill="none" xmlns="http://www.w3.org/2000/svg">
<path fill-rule="evenodd" clip-rule="evenodd" d="M42.676 22.0902C44.2929 22.5517 45.9617 22.7825 47.6822 22.7825C49.6722 22.7825 51.3617 22.4783 52.7506 21.8699C54.1394 21.2616 55.1759 20.4434 55.86 19.4155C56.5648 18.3665 56.9172 17.2127 56.9172 15.954C56.9172 14.4855 56.5337 13.3213 55.7667 12.4611C55.0204 11.601 54.1187 10.9717 53.0615 10.5731C52.0043 10.1745 50.6465 9.77591 48.9882 9.37732C47.392 9.02069 46.2001 8.66406 45.4123 8.30743C44.6453 7.92982 44.2618 7.3634 44.2618 6.60818C44.2618 5.85296 44.5935 5.24459 45.2569 4.78306C45.9409 4.32154 46.9878 4.09078 48.3974 4.09078C50.4081 4.09078 52.4189 4.66768 54.4297 5.82149L55.9844 1.95099C54.9893 1.32164 53.8285 0.839133 52.5018 0.503479C51.1751 0.167826 49.8173 0 48.4285 0C46.4384 0 44.749 0.304186 43.3601 0.912557C41.992 1.52093 40.9659 2.34957 40.2818 3.39849C39.5977 4.42643 39.2557 5.58024 39.2557 6.85992C39.2557 8.3284 39.6288 9.50319 40.3751 10.3843C41.1421 11.2654 42.0542 11.9052 43.1114 12.3038C44.1686 12.7024 45.5263 13.101 47.1847 13.4996C48.2626 13.7513 49.1125 13.9821 49.7344 14.1919C50.377 14.4016 50.8953 14.6848 51.2891 15.0415C51.7037 15.3771 51.911 15.8072 51.911 16.3316C51.911 17.0449 51.569 17.6218 50.8849 18.0624C50.2008 18.4819 49.1436 18.6917 47.7133 18.6917C46.4281 18.6917 45.1428 18.4819 43.8576 18.0624C42.5724 17.6428 41.4634 17.0869 40.5305 16.3946L38.8204 20.2336C39.7946 20.9888 41.0799 21.6077 42.676 22.0902ZM82.5686 12.9646C81.8638 12.0205 80.8895 11.3492 79.6457 10.9506C80.5578 10.4681 81.2626 9.80733 81.7601 8.96819C82.2784 8.12906 82.5375 7.17454 82.5375 6.10465C82.5375 4.34247 81.8223 2.94741 80.392 1.91947C78.9824 0.891529 76.9509 0.377559 74.2975 0.377559H63.6633V22.4048H74.9194C77.7593 22.4048 79.9152 21.8909 81.387 20.8629C82.8795 19.814 83.6258 18.3245 83.6258 16.3945C83.6258 15.0309 83.2734 13.8876 82.5686 12.9646ZM68.6695 9.40874V4.2166H73.6756C74.9194 4.2166 75.8626 4.43687 76.5052 4.87741C77.1478 5.29698 77.4691 5.93682 77.4691 6.79693C77.4691 7.65705 77.1478 8.30737 76.5052 8.74792C75.8626 9.18847 74.9194 9.40874 73.6756 9.40874H68.6695ZM77.5313 17.905C76.868 18.3455 75.873 18.5658 74.5463 18.5658H68.6695V13.1219H74.5463C77.2204 13.1219 78.5574 14.0345 78.5574 15.8596C78.5574 16.7826 78.2154 17.4644 77.5313 17.905ZM99.4515 14.6009V22.4048H94.4142V14.5379L85.9877 0.377559H91.3359L97.1505 10.164L102.965 0.377559H107.909L99.4515 14.6009ZM31.5378 34.9471C31.6176 34.9129 31.69 34.863 31.7508 34.8004C31.8412 34.7051 31.9012 34.5845 31.923 34.4543C31.9448 34.3241 31.9274 34.1902 31.873 34.0701L24.8142 18.5778C24.9495 18.3596 25.0117 18.1031 24.9915 17.8463C24.9713 17.5896 24.8698 17.3462 24.7021 17.1525C24.5344 16.9587 24.3094 16.8249 24.0605 16.7708C23.8117 16.7167 23.5523 16.7453 23.3207 16.8523C23.0892 16.9593 22.898 17.139 22.7754 17.3647C22.6528 17.5905 22.6054 17.8502 22.6403 18.1053C22.6751 18.3605 22.7904 18.5975 22.9689 18.7811C23.1474 18.9647 23.3797 19.0851 23.6312 19.1245L30.0038 33.0923L27.5628 32.0428C27.5193 31.7882 27.3955 31.5548 27.2101 31.3773C27.0247 31.1998 26.7875 31.0877 26.534 31.0578C26.2804 31.0279 26.0241 31.0819 25.8034 31.2115C25.5826 31.3412 25.4092 31.5396 25.309 31.7772C25.2088 32.0148 25.1873 32.2788 25.2476 32.5298C25.3078 32.7808 25.4467 33.0053 25.6435 33.1699C25.8402 33.3345 26.0843 33.4302 26.3393 33.4428C26.5942 33.4555 26.8464 33.3843 27.0581 33.24L31.0331 34.9481C31.1134 34.9805 31.1989 34.9981 31.2854 35C31.3722 34.9993 31.4579 34.9814 31.5378 34.9471ZM16.8957 1.27762L20.1807 8.46107H20.1649C20.3899 8.49094 20.6018 8.58571 20.7751 8.73406C20.9484 8.88242 21.0758 9.07809 21.1423 9.29775C21.2087 9.51741 21.2113 9.75177 21.1497 9.97287C21.0882 10.194 20.965 10.3925 20.7951 10.5447C20.6251 10.697 20.4154 10.7965 20.1911 10.8314C19.9667 10.8664 19.7372 10.8353 19.5298 10.7419C19.3224 10.6484 19.146 10.4966 19.0216 10.3044C18.8972 10.1123 18.83 9.88802 18.828 9.65831C18.8274 9.43973 18.8875 9.22538 19.0016 9.03974L16.2963 3.1094L8.45279 20.2699C8.56382 20.5019 8.59788 20.764 8.54992 21.0171C8.50195 21.2703 8.37453 21.5011 8.18658 21.6751C7.99863 21.8491 7.76021 21.957 7.50677 21.9829C7.25332 22.0088 6.9984 21.9512 6.7799 21.8187C6.5614 21.6861 6.39101 21.4858 6.29405 21.2474C6.19709 21.009 6.17876 20.7453 6.24176 20.4956C6.30477 20.2458 6.44576 20.0233 6.64376 19.8611C6.84177 19.6989 7.08621 19.6057 7.34073 19.5954L15.7127 1.27762C15.7634 1.16161 15.8463 1.06301 15.9513 0.993791C16.0563 0.924572 16.1789 0.887723 16.3042 0.887723C16.4296 0.887723 16.5522 0.924572 16.6572 0.993791C16.7622 1.06301 16.8451 1.16161 16.8957 1.27762ZM18.1222 27.9921C18.2914 27.9028 18.4795 27.8562 18.6703 27.8564L18.6742 27.8484C18.9044 27.849 19.1294 27.9176 19.3216 28.0457C19.5138 28.1738 19.665 28.3558 19.7565 28.5695C19.848 28.7832 19.876 29.0193 19.8369 29.2488C19.7979 29.4783 19.6935 29.6914 19.5366 29.8618C19.3798 30.0322 19.1772 30.1526 18.9537 30.2082C18.7302 30.2639 18.4955 30.2523 18.2784 30.175C18.0613 30.0977 17.8712 29.958 17.7314 29.773C17.5916 29.588 17.5081 29.3657 17.4912 29.1335L16.1465 28.5588L1.59116 34.9441C1.51035 34.9801 1.42314 34.9991 1.33484 35C1.22651 34.9991 1.12012 34.9708 1.02531 34.9178C0.930508 34.8647 0.850285 34.7886 0.791925 34.6962C0.733564 34.6039 0.698912 34.4982 0.691112 34.3889C0.683312 34.2796 0.702611 34.17 0.747259 34.0701L1.98156 31.3563C1.88249 31.1769 1.8296 30.9752 1.82777 30.7697C1.82899 30.5385 1.89636 30.3125 2.02174 30.1192C2.14711 29.9259 2.32513 29.7734 2.53427 29.6803C2.74342 29.5871 2.97474 29.5573 3.20029 29.5943C3.42584 29.6314 3.63596 29.7337 3.80527 29.889C3.97458 30.0443 4.09582 30.2459 4.15436 30.4694C4.21289 30.6929 4.2062 30.9288 4.13511 31.1486C4.06402 31.3684 3.93155 31.5626 3.75373 31.7078C3.57591 31.853 3.36033 31.943 3.13305 31.9669L2.62829 33.0644L15.902 27.2538C15.9824 27.2192 16.0689 27.2014 16.1563 27.2014C16.2437 27.2014 16.3303 27.2192 16.4107 27.2538L18.1222 27.9921ZM38.4029 28.9679H39.8874C40.264 28.9679 40.5598 29.075 40.775 29.2891C40.9901 29.4996 41.0977 29.7917 41.0977 30.1655C41.0977 30.4449 41.0349 30.679 40.9094 30.8677C40.7875 31.0564 40.6136 31.1889 40.3877 31.2651C40.4558 31.3231 40.5132 31.4012 40.5598 31.4991L41.1515 32.6477C41.216 32.7711 41.1856 32.8328 41.06 32.8328H40.7481C40.6297 32.8328 40.5473 32.8237 40.5006 32.8056C40.454 32.7838 40.4146 32.7384 40.3823 32.6695L39.9305 31.7441C39.8588 31.5917 39.7799 31.4901 39.6938 31.4393C39.6077 31.3885 39.4733 31.363 39.2904 31.363H38.8923V32.6477C38.8923 32.7167 38.878 32.7656 38.8493 32.7947C38.8242 32.8201 38.7776 32.8328 38.7095 32.8328H38.4029C38.3347 32.8328 38.2863 32.8201 38.2576 32.7947C38.229 32.7656 38.2146 32.7167 38.2146 32.6477V29.153C38.2146 29.0841 38.229 29.0369 38.2576 29.0115C38.2863 28.9824 38.3347 28.9679 38.4029 28.9679ZM40.2425 30.5792C40.3393 30.4848 40.3877 30.3469 40.3877 30.1655C40.3877 29.984 40.3393 29.8443 40.2425 29.7463C40.142 29.652 40.0022 29.6048 39.8229 29.6048H38.8923V30.7262H39.8229C40.0022 30.7262 40.142 30.6772 40.2425 30.5792ZM42.2241 30.3072V31.4938C42.2241 31.9402 42.3586 32.2886 42.6275 32.539C42.8964 32.7894 43.2748 32.9146 43.7624 32.9146C44.2465 32.9146 44.6231 32.7894 44.892 32.539C45.1609 32.2886 45.2954 31.9402 45.2954 31.4938V30.3072C45.2954 29.8608 45.1609 29.5124 44.892 29.262C44.6231 29.0116 44.2465 28.8864 43.7624 28.8864C43.2748 28.8864 42.8964 29.0116 42.6275 29.262C42.3586 29.5124 42.2241 29.8608 42.2241 30.3072ZM44.6231 30.3017V31.4993C44.6231 31.7497 44.5478 31.942 44.3971 32.0763C44.2501 32.2106 44.0386 32.2777 43.7624 32.2777C43.4863 32.2777 43.273 32.2124 43.1224 32.0817C42.9753 31.9475 42.9018 31.7533 42.9018 31.4993V30.3017C42.9018 30.0477 42.9753 29.8554 43.1224 29.7247C43.273 29.5905 43.4863 29.5233 43.7624 29.5233C44.0386 29.5233 44.2501 29.5905 44.3971 29.7247C44.5478 29.859 44.6231 30.0513 44.6231 30.3017ZM46.7354 28.9679H48.2254C48.5732 28.9679 48.844 29.0568 49.0376 29.2347C49.2312 29.4088 49.3281 29.6592 49.3281 29.9859C49.3281 30.3705 49.1918 30.6445 48.9193 30.8078V30.8296C49.285 30.9602 49.4679 31.2741 49.4679 31.7713C49.4679 32.1015 49.3585 32.361 49.1398 32.5497C48.9211 32.7384 48.627 32.8328 48.2577 32.8328H46.7354C46.6673 32.8328 46.6189 32.8201 46.5902 32.7947C46.5615 32.7656 46.5472 32.7167 46.5472 32.6477V29.153C46.5472 29.0841 46.5615 29.0369 46.5902 29.0115C46.6189 28.9824 46.6673 28.9679 46.7354 28.9679ZM47.2249 30.5629H48.1447C48.4746 30.5629 48.6396 30.4032 48.6396 30.0838C48.6396 29.7645 48.4746 29.6048 48.1447 29.6048H47.2249V30.5629ZM48.7525 31.6951C48.7525 31.354 48.5822 31.1834 48.2415 31.1834H47.2249V32.1959H48.2415C48.5822 32.1959 48.7525 32.029 48.7525 31.6951ZM50.5528 30.3072V31.4938C50.5528 31.9402 50.6873 32.2886 50.9563 32.539C51.2252 32.7894 51.6035 32.9146 52.0912 32.9146C52.5753 32.9146 52.9518 32.7894 53.2208 32.539C53.4897 32.2886 53.6242 31.9402 53.6242 31.4938V30.3072C53.6242 29.8608 53.4897 29.5124 53.2208 29.262C52.9518 29.0116 52.5753 28.8864 52.0912 28.8864C51.6035 28.8864 51.2252 29.0116 50.9563 29.262C50.6873 29.5124 50.5528 29.8608 50.5528 30.3072ZM52.9518 30.3017V31.4993C52.9518 31.7497 52.8765 31.942 52.7259 32.0763C52.5789 32.2106 52.3673 32.2777 52.0912 32.2777C51.8151 32.2777 51.6017 32.2124 51.4511 32.0817C51.3041 31.9475 51.2306 31.7533 51.2306 31.4993V30.3017C51.2306 30.0477 51.3041 29.8554 51.4511 29.7247C51.6017 29.5905 51.8151 29.5233 52.0912 29.5233C52.3673 29.5233 52.5789 29.5905 52.7259 29.7247C52.8765 29.859 52.9518 30.0513 52.9518 30.3017ZM54.7588 28.9679H57.2869C57.355 28.9679 57.4016 28.9824 57.4267 29.0115C57.4554 29.0369 57.4698 29.0841 57.4698 29.153V29.4197C57.4698 29.4887 57.4554 29.5377 57.4267 29.5667C57.4016 29.5921 57.355 29.6048 57.2869 29.6048H56.3617V32.6477C56.3617 32.7167 56.3474 32.7656 56.3187 32.7947C56.2936 32.8201 56.247 32.8328 56.1788 32.8328H55.8669C55.7987 32.8328 55.7503 32.8201 55.7216 32.7947C55.6965 32.7656 55.684 32.7167 55.684 32.6477V29.6048H54.7588C54.6907 29.6048 54.6423 29.5921 54.6136 29.5667C54.5885 29.5377 54.5759 29.4887 54.5759 29.4197V29.153C54.5759 29.0841 54.5885 29.0369 54.6136 29.0115C54.6423 28.9824 54.6907 28.9679 54.7588 28.9679ZM58.543 29.153V32.6477C58.543 32.7167 58.5573 32.7656 58.586 32.7947C58.6147 32.8201 58.6631 32.8328 58.7312 32.8328H59.0378C59.106 32.8328 59.1526 32.8201 59.1777 32.7947C59.2064 32.7656 59.2207 32.7167 59.2207 32.6477V29.153C59.2207 29.0841 59.2064 29.0369 59.1777 29.0115C59.1526 28.9824 59.106 28.9679 59.0378 28.9679H58.7312C58.6631 28.9679 58.6147 28.9824 58.586 29.0115C58.5573 29.0369 58.543 29.0841 58.543 29.153ZM60.4745 31.4938V30.3017C60.4745 29.859 60.6089 29.5124 60.8779 29.262C61.1468 29.0116 61.5251 28.8864 62.0128 28.8864C62.7766 28.8864 63.2643 29.1894 63.4759 29.7955C63.5189 29.9116 63.4813 29.9915 63.3629 30.035L63.0671 30.1384C63.0025 30.1602 62.9541 30.1638 62.9218 30.1493C62.8896 30.1312 62.8609 30.0894 62.8358 30.0241C62.7174 29.6902 62.4431 29.5233 62.0128 29.5233C61.7367 29.5233 61.5233 29.5905 61.3727 29.7247C61.2257 29.8554 61.1522 30.0459 61.1522 30.2963V31.4993C61.1522 31.7497 61.2257 31.942 61.3727 32.0763C61.5233 32.2106 61.7367 32.2777 62.0128 32.2777C62.4395 32.2777 62.7139 32.109 62.8358 31.7715C62.8645 31.7025 62.895 31.6608 62.9272 31.6463C62.9595 31.6281 63.0079 31.6318 63.0725 31.6572L63.3629 31.7606C63.4813 31.8041 63.5207 31.884 63.4813 32.0001C63.2733 32.6098 62.7838 32.9146 62.0128 32.9146C61.5251 32.9146 61.1468 32.7894 60.8779 32.539C60.6089 32.2886 60.4745 31.9402 60.4745 31.4938ZM66.8153 29.1749C66.6288 29.3673 66.5356 29.6032 66.5356 29.8826C66.5356 30.1656 66.6539 30.4342 66.8906 30.6882C66.4172 30.9422 66.1806 31.2979 66.1806 31.7551C66.1806 32.0963 66.2881 32.3739 66.5033 32.588C66.7185 32.8057 66.9964 32.9146 67.337 32.9146C67.5414 32.9146 67.7279 32.8765 67.8964 32.8003C68.0542 32.735 68.2461 32.5952 68.472 32.3811L68.8162 32.735C68.8808 32.8003 68.9632 32.8329 69.0636 32.8329H69.4455C69.5962 32.8329 69.6231 32.7785 69.5262 32.6696L68.8754 31.9783L69.225 31.6354C69.2931 31.5664 69.2985 31.4993 69.2411 31.434L69.026 31.2162C68.9507 31.14 68.8772 31.14 68.8055 31.2162L68.472 31.5428L67.8104 30.857L67.8642 30.8297C68.1116 30.71 68.2927 30.5703 68.4074 30.4106C68.5222 30.2509 68.5796 30.0586 68.5796 29.8336C68.5796 29.5687 68.4827 29.3437 68.2891 29.1586C68.0919 28.9772 67.8552 28.8864 67.5791 28.8864C67.2528 28.8864 66.9982 28.9826 66.8153 29.1749ZM67.8749 29.556C67.9538 29.6358 67.9932 29.7302 67.9932 29.839C67.9932 29.9515 67.9628 30.0441 67.9018 30.1167C67.8444 30.1892 67.7458 30.2582 67.606 30.3235L67.4123 30.4269C67.3012 30.3144 67.2241 30.2201 67.181 30.1439C67.1416 30.0677 67.1219 29.9824 67.1219 29.888C67.1219 29.7574 67.1631 29.6503 67.2456 29.5669C67.3281 29.4798 67.4392 29.4362 67.5791 29.4362C67.6974 29.4362 67.796 29.4761 67.8749 29.556ZM67.2886 31.1237L68.0686 31.9348C67.9179 32.0763 67.7942 32.1761 67.6974 32.2342C67.6006 32.2886 67.4912 32.3158 67.3693 32.3158C67.2115 32.3158 67.0788 32.265 66.9713 32.1634C66.8673 32.0582 66.8153 31.9257 66.8153 31.766C66.8153 31.4902 66.9731 31.2761 67.2886 31.1237ZM72.3218 32.6477V29.153C72.3218 29.0841 72.3362 29.0369 72.3649 29.0115C72.3935 28.9824 72.442 28.9679 72.5101 28.9679H72.8167C72.8848 28.9679 72.9314 28.9824 72.9565 29.0115C72.9852 29.0369 72.9996 29.0841 72.9996 29.153V32.6477C72.9996 32.7167 72.9852 32.7656 72.9565 32.7947C72.9314 32.8201 72.8848 32.8328 72.8167 32.8328H72.5101C72.442 32.8328 72.3935 32.8201 72.3649 32.7947C72.3362 32.7656 72.3218 32.7167 72.3218 32.6477ZM77.1696 28.9679H76.8846C76.8164 28.9679 76.768 28.9824 76.7393 29.0115C76.7142 29.0369 76.7017 29.0841 76.7017 29.153V30.8405C76.7017 30.9058 76.7035 30.9784 76.707 31.0582C76.7106 31.1344 76.716 31.207 76.7232 31.276L76.7447 31.4828C76.7555 31.5481 76.7644 31.6098 76.7716 31.6679C76.7824 31.7223 76.7913 31.7713 76.7985 31.8149C76.8057 31.8548 76.811 31.8856 76.8146 31.9074L76.82 31.9401H76.7881C76.7885 31.9367 76.7686 31.8877 76.7286 31.7931C76.6891 31.6915 76.6317 31.5645 76.5564 31.412C76.4811 31.256 76.4076 31.1235 76.3359 31.0147L75.0288 29.055C74.993 28.997 74.9338 28.9679 74.8513 28.9679H74.5447C74.4766 28.9679 74.4282 28.9824 74.3995 29.0115C74.3708 29.0369 74.3565 29.0841 74.3565 29.153V32.6477C74.3565 32.7167 74.3708 32.7656 74.3995 32.7947C74.4282 32.8201 74.4766 32.8328 74.5447 32.8328H74.8298C74.8979 32.8328 74.9446 32.8201 74.9697 32.7947C74.9984 32.7656 75.0127 32.7167 75.0127 32.6477V30.9385C75.0127 30.8514 75.0073 30.7552 74.9966 30.65C74.9894 30.5447 74.9804 30.4467 74.9697 30.356C74.9589 30.2617 74.9482 30.1764 74.9374 30.1002C74.9266 30.024 74.9159 29.9641 74.9051 29.9205L74.8998 29.8859C74.8969 29.8675 74.8952 29.8573 74.8946 29.8552H74.9256C74.9249 29.8583 74.9306 29.8782 74.9428 29.9151C74.9607 29.955 74.984 30.0094 75.0127 30.0784C75.0414 30.1473 75.0737 30.2217 75.1095 30.3016C75.1454 30.3778 75.1866 30.4594 75.2332 30.5465C75.2799 30.6336 75.3247 30.708 75.3677 30.7697L76.6855 32.7402C76.725 32.8019 76.7841 32.8328 76.863 32.8328H77.1696C77.2378 32.8328 77.2844 32.8201 77.3095 32.7947C77.3382 32.7656 77.3525 32.7167 77.3525 32.6477V29.153C77.3525 29.0841 77.3382 29.0369 77.3095 29.0115C77.2844 28.9824 77.2378 28.9679 77.1696 28.9679ZM81.2383 28.9679H81.5234C81.5916 28.9679 81.6382 28.9824 81.6633 29.0115C81.692 29.0369 81.7063 29.0841 81.7063 29.153V32.6477C81.7063 32.7167 81.692 32.7656 81.6633 32.7947C81.6382 32.8201 81.5916 32.8328 81.5234 32.8328H81.2168C81.1379 32.8328 81.0788 32.8019 81.0393 32.7402L79.7215 30.7697C79.6785 30.708 79.6337 30.6336 79.587 30.5465C79.5404 30.4594 79.4992 30.3778 79.4633 30.3016C79.4275 30.2217 79.3952 30.1473 79.3665 30.0784C79.3378 30.0094 79.3145 29.955 79.2966 29.9151C79.2844 29.8782 79.2787 29.8583 79.2794 29.8552H79.2484C79.2493 29.8583 79.2528 29.8801 79.2589 29.9205C79.2697 29.9641 79.2804 30.024 79.2912 30.1002C79.3019 30.1764 79.3127 30.2617 79.3235 30.356C79.3342 30.4467 79.3432 30.5447 79.3504 30.65C79.3611 30.7552 79.3665 30.8514 79.3665 30.9385V32.6477C79.3665 32.7167 79.3522 32.7656 79.3235 32.7947C79.2984 32.8201 79.2517 32.8328 79.1836 32.8328H78.8985C78.8304 32.8328 78.782 32.8201 78.7533 32.7947C78.7246 32.7656 78.7103 32.7167 78.7103 32.6477V29.153C78.7103 29.0841 78.7246 29.0369 78.7533 29.0115C78.782 28.9824 78.8304 28.9679 78.8985 28.9679H79.2051C79.2876 28.9679 79.3468 28.997 79.3826 29.055L80.6897 31.0147C80.7614 31.1235 80.8349 31.256 80.9102 31.412C80.9855 31.5645 81.0429 31.6915 81.0824 31.7931C81.1224 31.8877 81.1423 31.9367 81.1419 31.9401H81.1738L81.1684 31.9074C81.1648 31.8856 81.1595 31.8548 81.1523 31.8149C81.1451 31.7713 81.1362 31.7223 81.1254 31.6679C81.1182 31.6098 81.1093 31.5481 81.0985 31.4828L81.077 31.276C81.0698 31.207 81.0644 31.1344 81.0608 31.0582C81.0573 30.9784 81.0555 30.9058 81.0555 30.8405V29.153C81.0555 29.0841 81.068 29.0369 81.0931 29.0115C81.1218 28.9824 81.1702 28.9679 81.2383 28.9679ZM82.9561 30.3072V31.4938C82.9561 31.9402 83.0906 32.2886 83.3596 32.539C83.6285 32.7894 84.0068 32.9146 84.4945 32.9146C84.9786 32.9146 85.3551 32.7894 85.6241 32.539C85.893 32.2886 86.0275 31.9402 86.0275 31.4938V30.3072C86.0275 29.8608 85.893 29.5124 85.6241 29.262C85.3551 29.0116 84.9786 28.8864 84.4945 28.8864C84.0068 28.8864 83.6285 29.0116 83.3596 29.262C83.0906 29.5124 82.9561 29.8608 82.9561 30.3072ZM85.3551 30.3017V31.4993C85.3551 31.7497 85.2798 31.942 85.1292 32.0763C84.9822 32.2106 84.7706 32.2777 84.4945 32.2777C84.2184 32.2777 84.005 32.2124 83.8544 32.0817C83.7074 31.9475 83.6339 31.7533 83.6339 31.4993V30.3017C83.6339 30.0477 83.7074 29.8554 83.8544 29.7247C84.005 29.5905 84.2184 29.5233 84.4945 29.5233C84.7706 29.5233 84.9822 29.5905 85.1292 29.7247C85.2798 29.859 85.3551 30.0513 85.3551 30.3017ZM89.9741 28.9679H90.2323C90.3614 28.9679 90.4008 29.0278 90.3506 29.1476L89.065 32.6804C89.0399 32.7421 89.0113 32.7838 88.979 32.8056C88.9503 32.8237 88.9037 32.8328 88.8391 32.8328H88.554C88.4357 32.8328 88.3604 32.7838 88.3281 32.6858L87.0372 29.1476C86.9942 29.0278 87.0336 28.9679 87.1555 28.9679H87.4299C87.541 28.9679 87.6181 28.9788 87.6612 29.0006C87.7078 29.0224 87.7418 29.0659 87.7634 29.1312L88.5487 31.4501C88.5738 31.5264 88.5971 31.6116 88.6186 31.706C88.6437 31.8003 88.6616 31.8765 88.6724 31.9346C88.6785 31.9653 88.6828 31.9885 88.6855 32.0042L88.6873 32.0159L88.688 32.0208C88.6883 32.0237 88.6885 32.0258 88.6885 32.0271H88.7208C88.7602 31.8022 88.8069 31.6116 88.8606 31.4556L89.6406 29.1312C89.6621 29.0659 89.6944 29.0224 89.7374 29.0006C89.784 28.9788 89.8629 28.9679 89.9741 28.9679ZM94.5065 32.6529L93.1618 29.1092C93.1259 29.0112 93.0506 28.9622 92.9359 28.9622H92.6508C92.5863 28.9622 92.5379 28.9731 92.5056 28.9949C92.4769 29.013 92.45 29.053 92.4249 29.1146L91.0802 32.6529C91.0371 32.7727 91.0784 32.8325 91.2039 32.8325H91.4513C91.5625 32.8325 91.6396 32.8216 91.6826 32.7999C91.7292 32.7781 91.7633 32.7345 91.7848 32.6692L92.0376 31.967H93.5222L93.7696 32.6692C93.7911 32.7345 93.8234 32.7781 93.8664 32.7999C93.9131 32.8216 93.992 32.8325 94.1031 32.8325H94.3828C94.5083 32.8325 94.5496 32.7727 94.5065 32.6529ZM92.9251 30.2578L93.3339 31.4063H92.2259L92.6401 30.2523C92.7189 30.0237 92.7584 29.8041 92.7584 29.5937H92.796L92.8014 29.6862C92.8301 29.9003 92.8713 30.0908 92.9251 30.2578ZM95.3728 28.9679H97.9009C97.969 28.9679 98.0157 28.9824 98.0408 29.0115C98.0694 29.0369 98.0838 29.0841 98.0838 29.153V29.4197C98.0838 29.4887 98.0694 29.5377 98.0408 29.5667C98.0157 29.5921 97.969 29.6048 97.9009 29.6048H96.9757V32.6477C96.9757 32.7167 96.9614 32.7656 96.9327 32.7947C96.9076 32.8201 96.861 32.8328 96.7929 32.8328H96.4809C96.4128 32.8328 96.3643 32.8201 96.3357 32.7947C96.3105 32.7656 96.298 32.7167 96.298 32.6477V29.6048H95.3728C95.3047 29.6048 95.2563 29.5921 95.2276 29.5667C95.2025 29.5377 95.1899 29.4887 95.1899 29.4197V29.153C95.1899 29.0841 95.2025 29.0369 95.2276 29.0115C95.2563 28.9824 95.3047 28.9679 95.3728 28.9679ZM99.1608 29.153V32.6477C99.1608 32.7167 99.1751 32.7656 99.2038 32.7947C99.2325 32.8201 99.2809 32.8328 99.3491 32.8328H99.6557C99.7238 32.8328 99.7704 32.8201 99.7955 32.7947C99.8242 32.7656 99.8385 32.7167 99.8385 32.6477V29.153C99.8385 29.0841 99.8242 29.0369 99.7955 29.0115C99.7704 28.9824 99.7238 28.9679 99.6557 28.9679H99.3491C99.2809 28.9679 99.2325 28.9824 99.2038 29.0115C99.1751 29.0369 99.1608 29.0841 99.1608 29.153ZM101.088 31.4938V30.3072C101.088 29.8608 101.223 29.5124 101.492 29.262C101.761 29.0116 102.139 28.8864 102.627 28.8864C103.111 28.8864 103.487 29.0116 103.756 29.262C104.025 29.5124 104.16 29.8608 104.16 30.3072V31.4938C104.16 31.9402 104.025 32.2886 103.756 32.539C103.487 32.7894 103.111 32.9146 102.627 32.9146C102.139 32.9146 101.761 32.7894 101.492 32.539C101.223 32.2886 101.088 31.9402 101.088 31.4938ZM103.487 31.4993V30.3017C103.487 30.0513 103.412 29.859 103.261 29.7247C103.114 29.5905 102.903 29.5233 102.627 29.5233C102.35 29.5233 102.137 29.5905 101.986 29.7247C101.839 29.8554 101.766 30.0477 101.766 30.3017V31.4993C101.766 31.7533 101.839 31.9475 101.986 32.0817C102.137 32.2124 102.35 32.2777 102.627 32.2777C102.903 32.2777 103.114 32.2106 103.261 32.0763C103.412 31.942 103.487 31.7497 103.487 31.4993ZM108.224 28.9679H107.939C107.871 28.9679 107.822 28.9824 107.794 29.0115C107.769 29.0369 107.756 29.0841 107.756 29.153V30.8405C107.756 30.9058 107.758 30.9784 107.762 31.0582C107.765 31.1344 107.77 31.207 107.778 31.276L107.799 31.4828C107.81 31.5481 107.819 31.6098 107.826 31.6679C107.837 31.7223 107.846 31.7713 107.853 31.8149C107.857 31.8357 107.86 31.854 107.863 31.8699C107.865 31.8845 107.867 31.897 107.869 31.9074L107.874 31.9401H107.843C107.843 31.9367 107.823 31.8877 107.783 31.7931C107.744 31.6915 107.686 31.5645 107.611 31.412C107.536 31.256 107.462 31.1235 107.39 31.0147L106.083 29.055C106.047 28.997 105.988 28.9679 105.906 28.9679H105.599C105.531 28.9679 105.483 28.9824 105.454 29.0115C105.425 29.0369 105.411 29.0841 105.411 29.153V32.6477C105.411 32.7167 105.425 32.7656 105.454 32.7947C105.483 32.8201 105.531 32.8328 105.599 32.8328H105.884C105.952 32.8328 105.999 32.8201 106.024 32.7947C106.053 32.7656 106.067 32.7167 106.067 32.6477V30.9385C106.067 30.8514 106.062 30.7552 106.051 30.65C106.044 30.5447 106.035 30.4467 106.024 30.356C106.013 30.2617 106.003 30.1764 105.992 30.1002C105.981 30.024 105.97 29.9641 105.96 29.9205C105.953 29.8801 105.95 29.8583 105.949 29.8552H105.98C105.979 29.8583 105.985 29.8782 105.997 29.9151C106.015 29.955 106.038 30.0094 106.067 30.0784C106.096 30.1473 106.128 30.2217 106.164 30.3016C106.2 30.3778 106.241 30.4594 106.288 30.5465C106.334 30.6336 106.379 30.708 106.422 30.7697L107.74 32.7402C107.779 32.8019 107.839 32.8328 107.918 32.8328H108.224C108.292 32.8328 108.339 32.8201 108.364 32.7947C108.393 32.7656 108.407 32.7167 108.407 32.6477V29.153C108.407 29.0841 108.393 29.0369 108.364 29.0115C108.339 28.9824 108.292 28.9679 108.224 28.9679Z" fill="white"/>
</svg>
